{"title":"Marvel's The Avengers(2012)MP-4[DaScubaDude]","uid":12357257,"size":1747643828,"categoryP":"video","categoryS":"movies","magnet":"?xt=urn:btih:29dffdf82bab481bc75e652a6c7d9baab7c766e6&amp;dn=Marvel%27s+The+Avengers%282012%29MP-4%5BDaScubaDude%5D&amp;tr=udp%3A%2F%2Ftracker.openbittorrent.com%3A80&amp;tr=udp%3A%2F%2Fopen.demonii.com%3A1337&amp;tr=udp%3A%2F%2Ftracker.coppersurfer.tk%3A6969&amp;tr=udp%3A%2F%2Fexodus.desync.com%3A6969","seeders":10,"leechers":3,"uploader":"dascuba","files":1,"time":1441489174,"description":"The Avengers (2012)\nPG-13  |  143 min  |  Action, Adventure, Sci-Fi  |  4 May 2012 (USA)\n8.1 Your rating:   -/10   Ratings: 8.1/10 from 875,223 users   Metascore: 69/100 \nReviews: 1,682 user | 693 critic | 43 from Metacritic.com\nEarth's mightiest heroes must come together and learn to fight as a team if they are to stop the mischievous Loki and his alien army from enslaving humanity.\n\nDirector: Joss Whedon\nWriters: Joss Whedon (screenplay), Zak Penn (story), 1 more credit Â»\nStars: Robert Downey Jr., Chris Evans, Scarlett Johansson\n\nGeneral\nComplete name           : C:The AvengersMARVELS_THE_AVENGERS_Title35.mp4\nFormat                                   : MPEG-4\nFormat profile                           : Base Media\nCodec ID                                 : isom\nFile size                                : 1.63 GiB\nDuration                                 : 2h 22mn\nOverall bit rate mode                    : Constant\nOverall bit rate                         : 1 632 Kbps\nMovie name                               : MARVELS_THE_AVENGERS\nGenre                                    : Action\nWriting application                      : Lavf54.6.100\n\nVideo\nID                                       : 1\nFormat                                   : MPEG-4 Visual\nFormat settings, BVOP                    : No\nFormat settings, QPel                    : No\nFormat settings, GMC                     : No warppoints\nFormat settings, Matrix                  : Default (H.263)\nCodec ID                                 : 20\nDuration                                 : 2h 22mn\nBit rate mode                            : Constant\nBit rate                                 : 1 498 Kbps\nWidth                                    : 720 pixels\nHeight                                   : 404 pixels\nDisplay aspect ratio                     : 16:9\nFrame rate mode                          : Constant\nFrame rate                               : 29.970 fps\nColor space                              : YUV\nChroma subsampling                       : 4:2:0\nBit depth                                : 8 bits\nScan type                                : Progressive\nCompression mode                         : Lossy\nBits/(Pixel*Frame)                       : 0.172\nStream size                              : 1.49 GiB (92%)\nWriting library                          : Lavc54.23.100\n\nAudio\nID                                       : 2\nFormat                                   : MPEG Audio\nFormat version                           : Version 1\nFormat profile                           : Layer 3\nCodec ID                                 : 6B\nDuration                                 : 2h 22mn\nBit rate mode                            : Constant\nBit rate                                 : 128 Kbps\nChannel(s)                               : 2 channels\nSampling rate                            : 44.1 KHz\nCompression mode                         : Lossy\nStream size                              : 131 MiB (8%)","torrent":{"xt":"urn:btih:29dffdf82bab481bc75e652a6c7d9baab7c766e6","amp;dn":"Marvel%27s+The+Avengers%282012%29MP-4%5BDaScubaDude%5D","amp;tr":["udp%3A%2F%2Ftracker.openbittorrent.com%3A80","udp%3A%2F%2Fopen.demonii.com%3A1337","udp%3A%2F%2Ftracker.coppersurfer.tk%3A6969","udp%3A%2F%2Fexodus.desync.com%3A6969"],"infoHash":"29dffdf82bab481bc75e652a6c7d9baab7c766e6","infoHashBuffer":{"type":"Buffer","data":[41,223,253,248,43,171,72,27,199,94,101,42,108,125,155,170,183,199,102,230]},"announce":[],"urlList":[]}}